# MagicaVoxel @ Ephtracy

# group
o 

# material
mtllib personagem.mtl
usemtl palette

# normals
vn -1 0 0
vn 1 0 0
vn 0 0 1
vn 0 0 -1
vn 0 -1 0
vn 0 1 0

# texcoords
vt 0.00195313 0.5
vt 0.0332031 0.5
vt 0.0371094 0.5
vt 0.0605469 0.5
vt 0.166016 0.5
vt 0.634766 0.5
vt 0.677734 0.5
vt 0.845703 0.5
vt 0.923828 0.5
vt 0.958984 0.5
vt 0.962891 0.5
vt 0.974609 0.5
vt 0.978516 0.5
vt 0.982422 0.5
vt 0.986328 0.5
vt 0.994141 0.5

# verts
v 0.5 1.8 -1
v 0.5 1.8 -1.2
v 0.5 1.9 -1
v 0.5 1.9 -1.2
v 0.6 1.8 -1.2
v 0.6 1.8 -1.3
v 0.6 1.9 -1
v 0.6 1.9 -1.2
v 0.6 2 -0.9
v 0.6 2 -1
v 0.6 2 -1.2
v 0.6 2 -1.3
v 0.6 2.1 -0.9
v 0.6 2.1 -1
v 0.6 2.2 -1
v 0.6 2.2 -1.2
v 0.7 1.5 -0.7
v 0.7 1.5 -0.8
v 0.7 1.5 -0.9
v 0.7 1.5 -1
v 0.7 1.5 -1.1
v 0.7 1.5 -1.2
v 0.7 1.6 -0.7
v 0.7 1.6 -0.8
v 0.7 1.6 -0.9
v 0.7 1.6 -1
v 0.7 1.6 -1.1
v 0.7 1.6 -1.2
v 0.7 1.6 -1.3
v 0.7 1.7 -1
v 0.7 1.7 -1.3
v 0.7 1.8 -0.9
v 0.7 1.8 -1
v 0.7 1.8 -1.1
v 0.7 1.8 -1.2
v 0.7 1.8 -1.3
v 0.7 1.9 -0.8
v 0.7 1.9 -0.9
v 0.7 1.9 -1
v 0.7 2 -0.9
v 0.7 2 -1
v 0.7 2 -1.2
v 0.7 2 -1.3
v 0.7 2.1 -0.8
v 0.7 2.1 -0.9
v 0.7 2.1 -1
v 0.7 2.2 -0.9
v 0.7 2.2 -1
v 0.7 2.2 -1.2
v 0.7 2.2 -1.3
v 0.7 2.3 -1
v 0.7 2.3 -1.2
v 0.8 1 -1
v 0.8 1 -1.1
v 0.8 1.1 -1
v 0.8 1.1 -1.1
v 0.8 1.2 -0.9
v 0.8 1.2 -1
v 0.8 1.2 -1.1
v 0.8 1.2 -1.2
v 0.8 1.3 -0.9
v 0.8 1.3 -1.1
v 0.8 1.3 -1.2
v 0.8 1.4 -0.9
v 0.8 1.4 -1.1
v 0.8 1.4 -1.2
v 0.8 1.5 -0.9
v 0.8 1.5 -1
v 0.8 1.5 -1.1
v 0.8 1.5 -1.2
v 0.8 1.6 -0.9
v 0.8 1.6 -1
v 0.8 1.7 -0.9
v 0.8 1.7 -1
v 0.8 1.7 -1.3
v 0.8 1.7 -1.4
v 0.8 1.8 -0.9
v 0.8 1.8 -1
v 0.8 2 -0.7
v 0.8 2 -0.8
v 0.8 2.1 -0.7
v 0.8 2.1 -0.8
v 0.8 2.1 -0.9
v 0.8 2.2 -0.8
v 0.8 2.2 -0.9
v 0.8 2.2 -1
v 0.8 2.2 -1.2
v 0.8 2.2 -1.3
v 0.8 2.2 -1.4
v 0.8 2.3 -0.9
v 0.8 2.3 -1
v 0.8 2.3 -1.2
v 0.8 2.3 -1.3
v 0.8 2.4 -1
v 0.8 2.4 -1.2
v 0.9 1.8 -1.4
v 0.9 1.8 -1.5
v 0.9 2.1 -1.4
v 0.9 2.1 -1.5
v 1 1.7 -0.8
v 1 1.7 -0.9
v 1 1.8 -0.8
v 1 1.8 -0.9
v 1 1.9 -0.8
v 1 1.9 -0.9
v 1 2 -0.8
v 1 2 -0.9
v 1.1 1 -1
v 1.1 1 -1.1
v 1.1 1.1 -1
v 1.1 1.1 -1.1
v 1.1 1.2 -1
v 1.1 1.2 -1.1
v 1.2 1.9 -0.8
v 1.2 1.9 -0.9
v 1.2 2 -0.8
v 1.2 2 -0.9
v 1.4 1.7 -0.9
v 1.4 1.7 -1.2
v 1.4 1.8 -0.9
v 1.4 1.8 -1
v 1.4 1.8 -1.1
v 1.4 1.8 -1.2
v 0.8 1.5 -0.7
v 0.8 1.5 -0.8
v 0.8 1.5 -0.9
v 0.8 1.6 -0.7
v 0.8 1.6 -0.8
v 0.8 1.6 -0.9
v 0.8 1.9 -0.8
v 0.8 1.9 -0.9
v 0.8 2 -0.8
v 0.8 2 -0.9
v 0.9 1 -1
v 0.9 1 -1.1
v 0.9 1.1 -1
v 0.9 1.1 -1.1
v 0.9 1.2 -1
v 0.9 1.2 -1.1
v 1.1 1.8 -1.4
v 1.1 1.8 -1.5
v 1.1 1.9 -0.8
v 1.1 1.9 -0.9
v 1.1 2 -0.8
v 1.1 2 -0.9
v 1.1 2.1 -1.4
v 1.1 2.1 -1.5
v 1.2 1 -1
v 1.2 1 -1.1
v 1.2 1.1 -1
v 1.2 1.1 -1.1
v 1.2 1.2 -0.9
v 1.2 1.2 -1
v 1.2 1.2 -1.1
v 1.2 1.2 -1.2
v 1.2 1.3 -0.9
v 1.2 1.3 -1
v 1.2 1.3 -1.1
v 1.2 1.3 -1.2
v 1.2 1.4 -0.9
v 1.2 1.4 -1
v 1.2 1.4 -1.1
v 1.2 1.4 -1.2
v 1.2 1.5 -0.9
v 1.2 1.5 -1
v 1.2 1.5 -1.1
v 1.2 1.5 -1.2
v 1.2 1.6 -1
v 1.2 1.7 -0.9
v 1.2 1.7 -1
v 1.2 1.7 -1.3
v 1.2 1.7 -1.4
v 1.2 1.8 -0.9
v 1.2 1.8 -1
v 1.2 2 -0.7
v 1.2 2 -0.8
v 1.2 2.1 -0.7
v 1.2 2.1 -0.8
v 1.2 2.1 -0.9
v 1.2 2.2 -0.8
v 1.2 2.2 -0.9
v 1.2 2.2 -1
v 1.2 2.2 -1.2
v 1.2 2.2 -1.3
v 1.2 2.2 -1.4
v 1.2 2.3 -0.9
v 1.2 2.3 -1
v 1.2 2.3 -1.2
v 1.2 2.3 -1.3
v 1.2 2.4 -1
v 1.2 2.4 -1.2
v 1.3 1.2 -1
v 1.3 1.2 -1.1
v 1.3 1.3 -1
v 1.3 1.3 -1.1
v 1.3 1.4 -1
v 1.3 1.4 -1.1
v 1.3 1.5 -1
v 1.3 1.5 -1.1
v 1.3 1.5 -1.2
v 1.3 1.6 -1
v 1.3 1.6 -1.1
v 1.3 1.6 -1.2
v 1.3 1.6 -1.3
v 1.3 1.7 -1
v 1.3 1.7 -1.3
v 1.3 1.8 -0.9
v 1.3 1.8 -1
v 1.3 1.8 -1.1
v 1.3 1.8 -1.2
v 1.3 1.8 -1.3
v 1.3 1.9 -0.8
v 1.3 1.9 -0.9
v 1.3 1.9 -1
v 1.3 2 -0.9
v 1.3 2 -1
v 1.3 2 -1.2
v 1.3 2 -1.3
v 1.3 2.1 -0.8
v 1.3 2.1 -0.9
v 1.3 2.1 -1
v 1.3 2.2 -0.9
v 1.3 2.2 -1
v 1.3 2.2 -1.2
v 1.3 2.2 -1.3
v 1.3 2.3 -1
v 1.3 2.3 -1.2
v 1.4 1.8 -1.2
v 1.4 1.8 -1.3
v 1.4 1.9 -1
v 1.4 1.9 -1.2
v 1.4 2 -0.9
v 1.4 2 -1
v 1.4 2 -1.2
v 1.4 2 -1.3
v 1.4 2.1 -0.9
v 1.4 2.1 -1
v 1.4 2.2 -1
v 1.4 2.2 -1.2
v 1.5 1.7 -0.8
v 1.5 1.7 -1.2
v 1.5 1.8 -0.8
v 1.5 1.8 -1
v 1.5 1.9 -1
v 1.5 1.9 -1.2
v 0.7 1.5 -0.7
v 0.7 1.6 -0.7
v 0.8 1.5 -0.7
v 0.8 1.6 -0.7
v 0.8 2 -0.7
v 0.8 2.1 -0.7
v 1.2 2 -0.7
v 1.2 2.1 -0.7
v 0.7 1.9 -0.8
v 0.7 2.1 -0.8
v 0.8 1.9 -0.8
v 0.8 2 -0.8
v 0.8 2.1 -0.8
v 0.8 2.2 -0.8
v 1 1.7 -0.8
v 1 1.8 -0.8
v 1 1.9 -0.8
v 1 2 -0.8
v 1.1 1.9 -0.8
v 1.1 2 -0.8
v 1.2 1.9 -0.8
v 1.2 2 -0.8
v 1.2 2.1 -0.8
v 1.2 2.2 -0.8
v 1.3 1.9 -0.8
v 1.3 2.1 -0.8
v 1.5 1.7 -0.8
v 1.5 1.8 -0.8
v 0.6 2 -0.9
v 0.6 2.1 -0.9
v 0.7 1.8 -0.9
v 0.7 1.9 -0.9
v 0.7 2 -0.9
v 0.7 2.1 -0.9
v 0.7 2.2 -0.9
v 0.8 1.2 -0.9
v 0.8 1.3 -0.9
v 0.8 1.4 -0.9
v 0.8 1.5 -0.9
v 0.8 1.6 -0.9
v 0.8 1.7 -0.9
v 0.8 1.8 -0.9
v 0.8 1.9 -0.9
v 0.8 2 -0.9
v 0.8 2.1 -0.9
v 0.8 2.2 -0.9
v 0.8 2.3 -0.9
v 0.9 1.8 -0.9
v 0.9 1.9 -0.9
v 1 1.2 -0.9
v 1 1.3 -0.9
v 1 1.4 -0.9
v 1 1.7 -0.9
v 1 1.8 -0.9
v 1 1.9 -0.9
v 1 2 -0.9
v 1.1 1.2 -0.9
v 1.1 1.3 -0.9
v 1.1 1.4 -0.9
v 1.1 1.5 -0.9
v 1.1 1.8 -0.9
v 1.1 1.9 -0.9
v 1.1 2 -0.9
v 1.2 1.2 -0.9
v 1.2 1.3 -0.9
v 1.2 1.4 -0.9
v 1.2 1.5 -0.9
v 1.2 1.7 -0.9
v 1.2 1.8 -0.9
v 1.2 1.9 -0.9
v 1.2 2 -0.9
v 1.2 2.1 -0.9
v 1.2 2.2 -0.9
v 1.2 2.3 -0.9
v 1.3 1.8 -0.9
v 1.3 1.9 -0.9
v 1.3 2 -0.9
v 1.3 2.1 -0.9
v 1.3 2.2 -0.9
v 1.4 2 -0.9
v 1.4 2.1 -0.9
v 0.5 1.8 -1
v 0.5 1.9 -1
v 0.6 1.8 -1
v 0.6 1.9 -1
v 0.6 2 -1
v 0.6 2.1 -1
v 0.6 2.2 -1
v 0.7 1.6 -1
v 0.7 1.7 -1
v 0.7 1.8 -1
v 0.7 1.9 -1
v 0.7 2 -1
v 0.7 2.1 -1
v 0.7 2.2 -1
v 0.7 2.3 -1
v 0.8 1 -1
v 0.8 1.1 -1
v 0.8 1.2 -1
v 0.8 1.6 -1
v 0.8 1.7 -1
v 0.8 1.8 -1
v 0.8 2.2 -1
v 0.8 2.3 -1
v 0.8 2.4 -1
v 0.9 1 -1
v 0.9 1.1 -1
v 0.9 1.2 -1
v 1.1 1 -1
v 1.1 1.1 -1
v 1.1 1.2 -1
v 1.2 1 -1
v 1.2 1.1 -1
v 1.2 1.2 -1
v 1.2 1.3 -1
v 1.2 1.4 -1
v 1.2 1.5 -1
v 1.2 1.6 -1
v 1.2 1.7 -1
v 1.2 1.8 -1
v 1.2 2.2 -1
v 1.2 2.3 -1
v 1.2 2.4 -1
v 1.3 1.2 -1
v 1.3 1.3 -1
v 1.3 1.4 -1
v 1.3 1.5 -1
v 1.3 1.6 -1
v 1.3 1.7 -1
v 1.3 1.8 -1
v 1.3 1.9 -1
v 1.3 2 -1
v 1.3 2.1 -1
v 1.3 2.2 -1
v 1.3 2.3 -1
v 1.4 1.8 -1
v 1.4 1.9 -1
v 1.4 2 -1
v 1.4 2.1 -1
v 1.4 2.2 -1
v 1.5 1.8 -1
v 1.5 1.9 -1
v 1.2 1.7 -0.9
v 1.2 1.8 -0.9
v 1.3 1.8 -0.9
v 1.4 1.7 -0.9
v 1.4 1.8 -0.9
v 0.8 1 -1.1
v 0.8 1.1 -1.1
v 0.8 1.2 -1.1
v 0.9 1 -1.1
v 0.9 1.1 -1.1
v 0.9 1.2 -1.1
v 1.1 1 -1.1
v 1.1 1.1 -1.1
v 1.1 1.2 -1.1
v 1.2 1 -1.1
v 1.2 1.1 -1.1
v 1.2 1.2 -1.1
v 1.2 1.3 -1.1
v 1.2 1.4 -1.1
v 1.2 1.5 -1.1
v 1.3 1.2 -1.1
v 1.3 1.3 -1.1
v 1.3 1.4 -1.1
v 1.3 1.5 -1.1
v 0.5 1.8 -1.2
v 0.5 1.9 -1.2
v 0.6 1.8 -1.2
v 0.6 1.9 -1.2
v 0.6 2 -1.2
v 0.6 2.2 -1.2
v 0.7 1.5 -1.2
v 0.7 1.6 -1.2
v 0.7 2 -1.2
v 0.7 2.2 -1.2
v 0.7 2.3 -1.2
v 0.8 1.2 -1.2
v 0.8 1.3 -1.2
v 0.8 1.4 -1.2
v 0.8 1.5 -1.2
v 0.8 1.6 -1.2
v 0.8 2.2 -1.2
v 0.8 2.3 -1.2
v 0.8 2.4 -1.2
v 1.2 1.2 -1.2
v 1.2 1.3 -1.2
v 1.2 1.4 -1.2
v 1.2 1.5 -1.2
v 1.2 1.6 -1.2
v 1.2 2.2 -1.2
v 1.2 2.3 -1.2
v 1.2 2.4 -1.2
v 1.3 1.5 -1.2
v 1.3 1.6 -1.2
v 1.3 2 -1.2
v 1.3 2.2 -1.2
v 1.3 2.3 -1.2
v 1.4 1.7 -1.2
v 1.4 1.8 -1.2
v 1.4 1.9 -1.2
v 1.4 2 -1.2
v 1.4 2.2 -1.2
v 1.5 1.7 -1.2
v 1.5 1.9 -1.2
v 0.6 1.8 -1.3
v 0.6 2 -1.3
v 0.7 1.6 -1.3
v 0.7 1.7 -1.3
v 0.7 1.8 -1.3
v 0.7 2 -1.3
v 0.7 2.2 -1.3
v 0.8 1.7 -1.3
v 0.8 2.2 -1.3
v 0.8 2.3 -1.3
v 1.2 1.7 -1.3
v 1.2 2.2 -1.3
v 1.2 2.3 -1.3
v 1.3 1.6 -1.3
v 1.3 1.7 -1.3
v 1.3 1.8 -1.3
v 1.3 2 -1.3
v 1.3 2.2 -1.3
v 1.4 1.8 -1.3
v 1.4 2 -1.3
v 0.8 1.7 -1.4
v 0.8 2.2 -1.4
v 0.9 1.8 -1.4
v 0.9 2.1 -1.4
v 1.1 1.8 -1.4
v 1.1 2.1 -1.4
v 1.2 1.7 -1.4
v 1.2 2.2 -1.4
v 0.9 1.8 -1.5
v 0.9 2.1 -1.5
v 1.1 1.8 -1.5
v 1.1 2.1 -1.5
v 0.8 1 -1
v 0.9 1 -1
v 1.1 1 -1
v 1.2 1 -1
v 0.8 1 -1.1
v 0.9 1 -1.1
v 1.1 1 -1.1
v 1.2 1 -1.1
v 0.8 1.2 -0.9
v 1 1.2 -0.9
v 1.1 1.2 -0.9
v 1.2 1.2 -0.9
v 0.8 1.2 -1
v 0.9 1.2 -1
v 1 1.2 -1
v 1.1 1.2 -1
v 1.2 1.2 -1
v 1.3 1.2 -1
v 0.8 1.2 -1.1
v 0.9 1.2 -1.1
v 1.1 1.2 -1.1
v 1.2 1.2 -1.1
v 1.3 1.2 -1.1
v 0.8 1.2 -1.2
v 1.2 1.2 -1.2
v 0.7 1.5 -0.7
v 0.8 1.5 -0.7
v 0.7 1.5 -0.8
v 0.8 1.5 -0.8
v 0.7 1.5 -0.9
v 0.8 1.5 -0.9
v 0.7 1.5 -1
v 0.8 1.5 -1
v 0.7 1.5 -1.1
v 0.8 1.5 -1.1
v 1.2 1.5 -1.1
v 1.3 1.5 -1.1
v 0.7 1.5 -1.2
v 0.8 1.5 -1.2
v 1.2 1.5 -1.2
v 1.3 1.5 -1.2
v 0.7 1.6 -1.2
v 0.8 1.6 -1.2
v 1.2 1.6 -1.2
v 1.3 1.6 -1.2
v 0.7 1.6 -1.3
v 1.3 1.6 -1.3
v 1 1.7 -0.8
v 1.5 1.7 -0.8
v 1 1.7 -0.9
v 1.2 1.7 -0.9
v 1.4 1.7 -0.9
v 1.4 1.7 -1.2
v 1.5 1.7 -1.2
v 0.8 1.7 -1.3
v 1.2 1.7 -1.3
v 0.8 1.7 -1.4
v 1.2 1.7 -1.4
v 0.7 1.8 -0.9
v 0.8 1.8 -0.9
v 1.2 1.8 -0.9
v 1.3 1.8 -0.9
v 0.5 1.8 -1
v 0.6 1.8 -1
v 0.7 1.8 -1
v 0.8 1.8 -1
v 1.2 1.8 -1
v 1.3 1.8 -1
v 1.4 1.8 -1
v 0.6 1.8 -1.1
v 0.7 1.8 -1.1
v 1.3 1.8 -1.1
v 1.4 1.8 -1.1
v 0.5 1.8 -1.2
v 0.6 1.8 -1.2
v 0.7 1.8 -1.2
v 1.3 1.8 -1.2
v 1.4 1.8 -1.2
v 0.6 1.8 -1.3
v 0.7 1.8 -1.3
v 1.3 1.8 -1.3
v 1.4 1.8 -1.3
v 0.9 1.8 -1.4
v 1.1 1.8 -1.4
v 0.9 1.8 -1.5
v 1.1 1.8 -1.5
v 0.7 1.9 -0.8
v 0.8 1.9 -0.8
v 1 1.9 -0.8
v 1.1 1.9 -0.8
v 1.2 1.9 -0.8
v 1.3 1.9 -0.8
v 0.7 1.9 -0.9
v 0.8 1.9 -0.9
v 1 1.9 -0.9
v 1.1 1.9 -0.9
v 1.2 1.9 -0.9
v 1.3 1.9 -0.9
v 0.8 2 -0.7
v 1.2 2 -0.7
v 0.8 2 -0.8
v 1 2 -0.8
v 1.1 2 -0.8
v 1.2 2 -0.8
v 0.6 2 -0.9
v 0.7 2 -0.9
v 0.8 2 -0.9
v 1 2 -0.9
v 1.1 2 -0.9
v 1.2 2 -0.9
v 1.3 2 -0.9
v 1.4 2 -0.9
v 0.6 2 -1
v 0.7 2 -1
v 1.3 2 -1
v 1.4 2 -1
v 0.7 1.6 -0.7
v 0.8 1.6 -0.7
v 0.7 1.6 -0.8
v 0.8 1.6 -0.8
v 0.7 1.6 -0.9
v 0.8 1.6 -0.9
v 0.7 1.6 -1
v 0.8 1.6 -1
v 1 1.8 -0.8
v 1.5 1.8 -0.8
v 1 1.8 -0.9
v 1.1 1.8 -0.9
v 1.2 1.8 -0.9
v 1.3 1.8 -0.9
v 1.4 1.8 -0.9
v 1.4 1.8 -1
v 1.5 1.8 -1
v 0.5 1.9 -1
v 0.6 1.9 -1
v 1.4 1.9 -1
v 1.5 1.9 -1
v 0.5 1.9 -1.2
v 0.6 1.9 -1.2
v 1.4 1.9 -1.2
v 1.5 1.9 -1.2
v 0.6 2 -1.2
v 0.7 2 -1.2
v 1.3 2 -1.2
v 1.4 2 -1.2
v 0.6 2 -1.3
v 0.7 2 -1.3
v 1.3 2 -1.3
v 1.4 2 -1.3
v 0.8 2.1 -0.7
v 1.2 2.1 -0.7
v 0.7 2.1 -0.8
v 0.8 2.1 -0.8
v 1.2 2.1 -0.8
v 1.3 2.1 -0.8
v 0.6 2.1 -0.9
v 0.7 2.1 -0.9
v 0.8 2.1 -0.9
v 1.2 2.1 -0.9
v 1.3 2.1 -0.9
v 1.4 2.1 -0.9
v 0.6 2.1 -1
v 0.7 2.1 -1
v 1.3 2.1 -1
v 1.4 2.1 -1
v 0.9 2.1 -1.4
v 1.1 2.1 -1.4
v 0.9 2.1 -1.5
v 1.1 2.1 -1.5
v 0.8 2.2 -0.8
v 1.2 2.2 -0.8
v 0.7 2.2 -0.9
v 0.8 2.2 -0.9
v 1.2 2.2 -0.9
v 1.3 2.2 -0.9
v 0.6 2.2 -1
v 0.7 2.2 -1
v 0.8 2.2 -1
v 1.2 2.2 -1
v 1.3 2.2 -1
v 1.4 2.2 -1
v 0.6 2.2 -1.2
v 0.7 2.2 -1.2
v 0.8 2.2 -1.2
v 1.2 2.2 -1.2
v 1.3 2.2 -1.2
v 1.4 2.2 -1.2
v 0.7 2.2 -1.3
v 0.8 2.2 -1.3
v 1.2 2.2 -1.3
v 1.3 2.2 -1.3
v 0.8 2.2 -1.4
v 1.2 2.2 -1.4
v 0.8 2.3 -0.9
v 1.2 2.3 -0.9
v 0.7 2.3 -1
v 0.8 2.3 -1
v 1.2 2.3 -1
v 1.3 2.3 -1
v 0.7 2.3 -1.2
v 0.8 2.3 -1.2
v 1.2 2.3 -1.2
v 1.3 2.3 -1.2
v 0.8 2.3 -1.3
v 1.2 2.3 -1.3
v 0.8 2.4 -1
v 1.2 2.4 -1
v 0.8 2.4 -1.2
v 1.2 2.4 -1.2

# faces
f 3/16/1 2/16/1 1/16/1
f 4/16/1 2/16/1 3/16/1
f 8/7/1 6/7/1 5/7/1
f 10/16/1 8/16/1 7/16/1
f 11/7/1 6/7/1 8/7/1
f 11/16/1 8/16/1 10/16/1
f 12/7/1 6/7/1 11/7/1
f 13/7/1 10/7/1 9/7/1
f 14/16/1 11/16/1 10/16/1
f 14/7/1 10/7/1 13/7/1
f 15/16/1 11/16/1 14/16/1
f 16/16/1 11/16/1 15/16/1
f 23/8/1 18/8/1 17/8/1
f 24/10/1 19/10/1 18/10/1
f 24/8/1 18/8/1 23/8/1
f 25/15/1 20/15/1 19/15/1
f 25/10/1 19/10/1 24/10/1
f 26/3/1 21/3/1 20/3/1
f 26/15/1 20/15/1 25/15/1
f 27/1/1 22/1/1 21/1/1
f 27/3/1 21/3/1 26/3/1
f 28/1/1 22/1/1 27/1/1
f 30/1/1 29/1/1 28/1/1
f 30/1/1 28/1/1 27/1/1
f 30/1/1 27/1/1 26/1/1
f 31/1/1 29/1/1 30/1/1
f 33/7/1 31/7/1 30/7/1
f 34/7/1 31/7/1 33/7/1
f 35/7/1 31/7/1 34/7/1
f 36/7/1 31/7/1 35/7/1
f 38/7/1 33/7/1 32/7/1
f 39/7/1 33/7/1 38/7/1
f 40/7/1 38/7/1 37/7/1
f 40/7/1 39/7/1 38/7/1
f 41/7/1 39/7/1 40/7/1
f 44/7/1 40/7/1 37/7/1
f 45/7/1 40/7/1 44/7/1
f 47/7/1 46/7/1 45/7/1
f 48/7/1 46/7/1 47/7/1
f 49/7/1 43/7/1 42/7/1
f 50/7/1 43/7/1 49/7/1
f 51/16/1 49/16/1 48/16/1
f 52/16/1 49/16/1 51/16/1
f 55/8/1 54/8/1 53/8/1
f 56/8/1 54/8/1 55/8/1
f 58/11/1 56/11/1 55/11/1
f 59/11/1 56/11/1 58/11/1
f 61/5/1 59/5/1 58/5/1
f 61/5/1 60/5/1 59/5/1
f 61/5/1 58/5/1 57/5/1
f 62/5/1 60/5/1 61/5/1
f 63/5/1 60/5/1 62/5/1
f 64/14/1 62/14/1 61/14/1
f 65/13/1 63/13/1 62/13/1
f 65/14/1 62/14/1 64/14/1
f 66/13/1 63/13/1 65/13/1
f 67/5/1 65/5/1 64/5/1
f 67/5/1 66/5/1 65/5/1
f 68/5/1 66/5/1 67/5/1
f 69/5/1 66/5/1 68/5/1
f 70/5/1 66/5/1 69/5/1
f 73/8/1 72/8/1 71/8/1
f 74/8/1 72/8/1 73/8/1
f 77/4/1 74/4/1 73/4/1
f 78/4/1 74/4/1 77/4/1
f 81/7/1 80/7/1 79/7/1
f 82/7/1 80/7/1 81/7/1
f 84/7/1 83/7/1 82/7/1
f 85/7/1 83/7/1 84/7/1
f 88/7/1 76/7/1 75/7/1
f 89/7/1 76/7/1 88/7/1
f 90/7/1 86/7/1 85/7/1
f 91/7/1 86/7/1 90/7/1
f 92/7/1 88/7/1 87/7/1
f 93/7/1 88/7/1 92/7/1
f 94/16/1 92/16/1 91/16/1
f 95/16/1 92/16/1 94/16/1
f 98/7/1 97/7/1 96/7/1
f 99/7/1 97/7/1 98/7/1
f 102/16/1 101/16/1 100/16/1
f 103/16/1 101/16/1 102/16/1
f 106/7/1 105/7/1 104/7/1
f 107/7/1 105/7/1 106/7/1
f 110/8/1 109/8/1 108/8/1
f 111/8/1 109/8/1 110/8/1
f 112/11/1 111/11/1 110/11/1
f 113/11/1 111/11/1 112/11/1
f 116/7/1 115/7/1 114/7/1
f 117/7/1 115/7/1 116/7/1
f 120/16/1 119/16/1 118/16/1
f 121/16/1 119/16/1 120/16/1
f 122/16/1 119/16/1 121/16/1
f 123/16/1 119/16/1 122/16/1
f 124/8/2 125/8/2 127/8/2
f 125/10/2 126/10/2 128/10/2
f 127/8/2 125/8/2 128/8/2
f 128/10/2 126/10/2 129/10/2
f 130/7/2 131/7/2 132/7/2
f 132/7/2 131/7/2 133/7/2
f 134/8/2 135/8/2 136/8/2
f 136/8/2 135/8/2 137/8/2
f 136/11/2 137/11/2 138/11/2
f 138/11/2 137/11/2 139/11/2
f 142/7/2 143/7/2 144/7/2
f 144/7/2 143/7/2 145/7/2
f 140/7/2 141/7/2 146/7/2
f 146/7/2 141/7/2 147/7/2
f 148/8/2 149/8/2 150/8/2
f 150/8/2 149/8/2 151/8/2
f 150/11/2 151/11/2 153/11/2
f 153/11/2 151/11/2 154/11/2
f 152/5/2 153/5/2 156/5/2
f 156/5/2 153/5/2 157/5/2
f 154/5/2 155/5/2 158/5/2
f 158/5/2 155/5/2 159/5/2
f 156/13/2 157/13/2 160/13/2
f 160/13/2 157/13/2 161/13/2
f 158/13/2 159/13/2 162/13/2
f 162/13/2 159/13/2 163/13/2
f 160/1/2 161/1/2 164/1/2
f 164/1/2 161/1/2 165/1/2
f 162/5/2 163/5/2 166/5/2
f 166/5/2 163/5/2 167/5/2
f 164/8/2 165/8/2 168/8/2
f 164/8/2 168/8/2 169/8/2
f 169/8/2 168/8/2 170/8/2
f 169/2/2 170/2/2 173/2/2
f 173/2/2 170/2/2 174/2/2
f 175/7/2 176/7/2 177/7/2
f 177/7/2 176/7/2 178/7/2
f 178/7/2 179/7/2 180/7/2
f 180/7/2 179/7/2 181/7/2
f 171/7/2 172/7/2 184/7/2
f 184/7/2 172/7/2 185/7/2
f 181/7/2 182/7/2 186/7/2
f 186/7/2 182/7/2 187/7/2
f 183/7/2 184/7/2 188/7/2
f 188/7/2 184/7/2 189/7/2
f 187/16/2 188/16/2 190/16/2
f 190/16/2 188/16/2 191/16/2
f 192/8/2 193/8/2 194/8/2
f 194/8/2 193/8/2 195/8/2
f 194/1/2 195/1/2 196/1/2
f 196/1/2 195/1/2 197/1/2
f 196/12/2 197/12/2 198/12/2
f 198/12/2 197/12/2 199/12/2
f 198/3/2 199/3/2 201/3/2
f 199/1/2 200/1/2 202/1/2
f 201/3/2 199/3/2 202/3/2
f 202/1/2 200/1/2 203/1/2
f 201/1/2 202/1/2 205/1/2
f 203/1/2 204/1/2 205/1/2
f 202/1/2 203/1/2 205/1/2
f 205/1/2 204/1/2 206/1/2
f 205/7/2 206/7/2 208/7/2
f 208/7/2 206/7/2 209/7/2
f 209/7/2 206/7/2 210/7/2
f 210/7/2 206/7/2 211/7/2
f 207/7/2 208/7/2 213/7/2
f 213/7/2 208/7/2 214/7/2
f 212/7/2 213/7/2 215/7/2
f 213/7/2 214/7/2 215/7/2
f 215/7/2 214/7/2 216/7/2
f 212/7/2 215/7/2 219/7/2
f 219/7/2 215/7/2 220/7/2
f 220/7/2 221/7/2 222/7/2
f 222/7/2 221/7/2 223/7/2
f 217/7/2 218/7/2 224/7/2
f 224/7/2 218/7/2 225/7/2
f 223/16/2 224/16/2 226/16/2
f 226/16/2 224/16/2 227/16/2
f 228/7/2 229/7/2 231/7/2
f 230/16/2 231/16/2 233/16/2
f 231/7/2 229/7/2 234/7/2
f 233/16/2 231/16/2 234/16/2
f 234/7/2 229/7/2 235/7/2
f 232/7/2 233/7/2 236/7/2
f 233/16/2 234/16/2 237/16/2
f 236/7/2 233/7/2 237/7/2
f 237/16/2 234/16/2 238/16/2
f 238/16/2 234/16/2 239/16/2
f 240/16/2 241/16/2 242/16/2
f 242/16/2 241/16/2 243/16/2
f 243/16/2 241/16/2 244/16/2
f 244/16/2 241/16/2 245/16/2
f 248/8/3 247/8/3 246/8/3
f 249/8/3 247/8/3 248/8/3
f 252/7/3 251/7/3 250/7/3
f 253/7/3 251/7/3 252/7/3
f 256/7/3 255/7/3 254/7/3
f 257/7/3 255/7/3 256/7/3
f 258/7/3 255/7/3 257/7/3
f 264/7/3 263/7/3 262/7/3
f 265/7/3 263/7/3 264/7/3
f 268/7/3 259/7/3 258/7/3
f 269/7/3 259/7/3 268/7/3
f 270/7/3 267/7/3 266/7/3
f 270/7/3 268/7/3 267/7/3
f 271/7/3 268/7/3 270/7/3
f 272/16/3 261/16/3 260/16/3
f 273/16/3 261/16/3 272/16/3
f 278/7/3 275/7/3 274/7/3
f 279/7/3 275/7/3 278/7/3
f 287/7/3 277/7/3 276/7/3
f 288/7/3 277/7/3 287/7/3
f 290/7/3 280/7/3 279/7/3
f 291/7/3 280/7/3 290/7/3
f 293/4/3 287/4/3 286/4/3
f 293/9/3 288/9/3 287/9/3
f 294/7/3 289/7/3 288/7/3
f 294/9/3 288/9/3 293/9/3
f 295/5/3 282/5/3 281/5/3
f 296/14/3 283/14/3 282/14/3
f 296/5/3 282/5/3 295/5/3
f 297/5/3 284/5/3 283/5/3
f 297/14/3 283/14/3 296/14/3
f 298/8/3 286/8/3 285/8/3
f 298/4/3 293/4/3 286/4/3
f 298/8/3 285/8/3 284/8/3
f 299/2/3 294/2/3 293/2/3
f 299/4/3 293/4/3 298/4/3
f 300/7/3 289/7/3 294/7/3
f 300/2/3 294/2/3 299/2/3
f 301/7/3 289/7/3 300/7/3
f 302/14/3 296/14/3 295/14/3
f 303/1/3 297/1/3 296/1/3
f 303/14/3 296/14/3 302/14/3
f 304/5/3 284/5/3 297/5/3
f 304/1/3 297/1/3 303/1/3
f 305/8/3 298/8/3 284/8/3
f 305/5/3 284/5/3 304/5/3
f 306/2/3 300/2/3 299/2/3
f 307/2/3 300/2/3 306/2/3
f 309/5/3 303/5/3 302/5/3
f 310/13/3 304/13/3 303/13/3
f 310/5/3 303/5/3 309/5/3
f 311/1/3 305/1/3 304/1/3
f 311/13/3 304/13/3 310/13/3
f 312/8/3 298/8/3 305/8/3
f 312/1/3 305/1/3 311/1/3
f 313/8/3 298/8/3 312/8/3
f 314/9/3 307/9/3 306/9/3
f 315/7/3 308/7/3 307/7/3
f 315/9/3 307/9/3 314/9/3
f 316/7/3 308/7/3 315/7/3
f 318/7/3 292/7/3 291/7/3
f 319/7/3 292/7/3 318/7/3
f 320/7/3 315/7/3 314/7/3
f 321/7/3 315/7/3 320/7/3
f 323/7/3 318/7/3 317/7/3
f 324/7/3 318/7/3 323/7/3
f 325/7/3 323/7/3 322/7/3
f 326/7/3 323/7/3 325/7/3
f 329/16/3 328/16/3 327/16/3
f 330/16/3 328/16/3 329/16/3
f 336/4/3 330/4/3 329/4/3
f 337/16/3 331/16/3 330/16/3
f 337/4/3 330/4/3 336/4/3
f 338/16/3 331/16/3 337/16/3
f 339/16/3 333/16/3 332/16/3
f 340/16/3 333/16/3 339/16/3
f 345/1/3 335/1/3 334/1/3
f 346/7/3 336/7/3 335/7/3
f 346/1/3 335/1/3 345/1/3
f 347/7/3 336/7/3 346/7/3
f 348/16/3 341/16/3 340/16/3
f 349/16/3 341/16/3 348/16/3
f 351/8/3 343/8/3 342/8/3
f 352/11/3 344/11/3 343/11/3
f 352/8/3 343/8/3 351/8/3
f 353/11/3 344/11/3 352/11/3
f 357/8/3 355/8/3 354/8/3
f 358/11/3 356/11/3 355/11/3
f 358/8/3 355/8/3 357/8/3
f 359/11/3 356/11/3 358/11/3
f 367/16/3 350/16/3 349/16/3
f 368/16/3 350/16/3 367/16/3
f 369/8/3 360/8/3 359/8/3
f 370/1/3 361/1/3 360/1/3
f 370/8/3 360/8/3 369/8/3
f 371/12/3 362/12/3 361/12/3
f 371/1/3 361/1/3 370/1/3
f 372/3/3 363/3/3 362/3/3
f 372/12/3 362/12/3 371/12/3
f 373/1/3 364/1/3 363/1/3
f 373/3/3 363/3/3 372/3/3
f 374/7/3 365/7/3 364/7/3
f 374/1/3 364/1/3 373/1/3
f 375/7/3 365/7/3 374/7/3
f 379/16/3 367/16/3 366/16/3
f 380/16/3 367/16/3 379/16/3
f 381/4/3 376/4/3 375/4/3
f 382/16/3 377/16/3 376/16/3
f 382/4/3 376/4/3 381/4/3
f 383/16/3 377/16/3 382/16/3
f 384/16/3 379/16/3 378/16/3
f 385/16/3 379/16/3 384/16/3
f 386/16/3 382/16/3 381/16/3
f 387/16/3 382/16/3 386/16/3
f 388/16/4 389/16/4 390/16/4
f 388/16/4 390/16/4 391/16/4
f 391/16/4 390/16/4 392/16/4
f 393/8/4 394/8/4 396/8/4
f 394/11/4 395/11/4 397/11/4
f 396/8/4 394/8/4 397/8/4
f 397/11/4 395/11/4 398/11/4
f 399/8/4 400/8/4 402/8/4
f 400/11/4 401/11/4 403/11/4
f 402/8/4 400/8/4 403/8/4
f 403/11/4 401/11/4 404/11/4
f 404/8/4 405/8/4 408/8/4
f 405/1/4 406/1/4 409/1/4
f 408/8/4 405/8/4 409/8/4
f 406/12/4 407/12/4 410/12/4
f 409/1/4 406/1/4 410/1/4
f 410/12/4 407/12/4 411/12/4
f 412/16/4 413/16/4 414/16/4
f 414/16/4 413/16/4 415/16/4
f 416/16/4 417/16/4 420/16/4
f 420/16/4 417/16/4 421/16/4
f 418/1/4 419/1/4 426/1/4
f 426/1/4 419/1/4 427/1/4
f 421/16/4 422/16/4 428/16/4
f 428/16/4 422/16/4 429/16/4
f 423/5/4 424/5/4 431/5/4
f 424/13/4 425/13/4 432/13/4
f 431/5/4 424/5/4 432/5/4
f 425/5/4 426/5/4 433/5/4
f 432/13/4 425/13/4 433/13/4
f 426/8/4 427/8/4 434/8/4
f 433/5/4 426/5/4 434/5/4
f 434/8/4 427/8/4 435/8/4
f 429/16/4 430/16/4 437/16/4
f 437/16/4 430/16/4 438/16/4
f 434/1/4 435/1/4 439/1/4
f 439/1/4 435/1/4 440/1/4
f 436/16/4 437/16/4 442/16/4
f 442/16/4 437/16/4 443/16/4
f 441/16/4 442/16/4 447/16/4
f 447/16/4 442/16/4 448/16/4
f 445/16/4 446/16/4 449/16/4
f 444/16/4 445/16/4 449/16/4
f 449/16/4 446/16/4 450/16/4
f 451/7/4 452/7/4 455/7/4
f 455/7/4 452/7/4 456/7/4
f 453/1/4 454/1/4 458/1/4
f 456/7/4 457/7/4 458/7/4
f 455/7/4 456/7/4 458/7/4
f 454/7/4 455/7/4 458/7/4
f 458/7/4 457/7/4 459/7/4
f 453/1/4 458/1/4 461/1/4
f 459/7/4 460/7/4 462/7/4
f 462/7/4 460/7/4 463/7/4
f 453/1/4 461/1/4 464/1/4
f 461/7/4 462/7/4 465/7/4
f 464/1/4 461/1/4 465/1/4
f 465/7/4 462/7/4 466/7/4
f 466/7/4 462/7/4 467/7/4
f 467/7/4 462/7/4 468/7/4
f 466/7/4 467/7/4 469/7/4
f 469/7/4 467/7/4 470/7/4
f 471/7/4 472/7/4 473/7/4
f 473/7/4 472/7/4 474/7/4
f 471/7/4 473/7/4 475/7/4
f 474/7/4 472/7/4 476/7/4
f 471/7/4 475/7/4 477/7/4
f 475/7/4 476/7/4 477/7/4
f 476/7/4 472/7/4 478/7/4
f 477/7/4 476/7/4 478/7/4
f 479/7/4 480/7/4 481/7/4
f 481/7/4 480/7/4 482/7/4
f 487/8/5 484/8/5 483/8/5
f 488/8/5 484/8/5 487/8/5
f 489/8/5 486/8/5 485/8/5
f 490/8/5 486/8/5 489/8/5
f 495/5/5 492/5/5 491/5/5
f 496/5/5 492/5/5 495/5/5
f 497/14/5 493/14/5 492/14/5
f 497/5/5 492/5/5 496/5/5
f 498/5/5 494/5/5 493/5/5
f 498/14/5 493/14/5 497/14/5
f 499/5/5 494/5/5 498/5/5
f 502/5/5 497/5/5 496/5/5
f 502/5/5 498/5/5 497/5/5
f 503/5/5 498/5/5 502/5/5
f 504/8/5 500/8/5 499/8/5
f 505/8/5 500/8/5 504/8/5
f 506/5/5 503/5/5 502/5/5
f 506/5/5 502/5/5 501/5/5
f 506/5/5 504/5/5 503/5/5
f 507/5/5 504/5/5 506/5/5
f 510/8/5 509/8/5 508/8/5
f 511/8/5 509/8/5 510/8/5
f 512/10/5 511/10/5 510/10/5
f 513/10/5 511/10/5 512/10/5
f 514/15/5 513/15/5 512/15/5
f 515/15/5 513/15/5 514/15/5
f 516/3/5 515/3/5 514/3/5
f 517/3/5 515/3/5 516/3/5
f 520/1/5 517/1/5 516/1/5
f 521/1/5 517/1/5 520/1/5
f 522/1/5 519/1/5 518/1/5
f 523/1/5 519/1/5 522/1/5
f 528/1/5 525/1/5 524/1/5
f 528/1/5 527/1/5 526/1/5
f 528/1/5 526/1/5 525/1/5
f 529/1/5 527/1/5 528/1/5
f 532/16/5 531/16/5 530/16/5
f 533/16/5 531/16/5 532/16/5
f 534/16/5 531/16/5 533/16/5
f 535/16/5 531/16/5 534/16/5
f 536/16/5 531/16/5 535/16/5
f 539/7/5 538/7/5 537/7/5
f 540/7/5 538/7/5 539/7/5
f 547/7/5 542/7/5 541/7/5
f 548/7/5 542/7/5 547/7/5
f 549/7/5 544/7/5 543/7/5
f 550/7/5 544/7/5 549/7/5
f 552/16/5 546/16/5 545/16/5
f 552/4/5 547/4/5 546/4/5
f 553/4/5 547/4/5 552/4/5
f 554/4/5 551/4/5 550/4/5
f 555/4/5 551/4/5 554/4/5
f 556/16/5 553/16/5 552/16/5
f 556/16/5 552/16/5 545/16/5
f 557/16/5 553/16/5 556/16/5
f 558/16/5 553/16/5 557/16/5
f 559/16/5 555/16/5 554/16/5
f 560/16/5 555/16/5 559/16/5
f 561/7/5 558/7/5 557/7/5
f 562/7/5 558/7/5 561/7/5
f 563/7/5 560/7/5 559/7/5
f 564/7/5 560/7/5 563/7/5
f 567/7/5 566/7/5 565/7/5
f 568/7/5 566/7/5 567/7/5
f 575/7/5 570/7/5 569/7/5
f 576/7/5 570/7/5 575/7/5
f 577/7/5 572/7/5 571/7/5
f 578/7/5 572/7/5 577/7/5
f 579/7/5 574/7/5 573/7/5
f 580/7/5 574/7/5 579/7/5
f 583/7/5 582/7/5 581/7/5
f 584/7/5 582/7/5 583/7/5
f 585/7/5 582/7/5 584/7/5
f 586/7/5 582/7/5 585/7/5
f 589/7/5 584/7/5 583/7/5
f 590/7/5 584/7/5 589/7/5
f 591/7/5 586/7/5 585/7/5
f 592/7/5 586/7/5 591/7/5
f 595/7/5 588/7/5 587/7/5
f 596/7/5 588/7/5 595/7/5
f 597/7/5 594/7/5 593/7/5
f 598/7/5 594/7/5 597/7/5
f 599/8/6 600/8/6 601/8/6
f 601/8/6 600/8/6 602/8/6
f 601/10/6 602/10/6 603/10/6
f 603/10/6 602/10/6 604/10/6
f 603/15/6 604/15/6 605/15/6
f 605/15/6 604/15/6 606/15/6
f 607/16/6 608/16/6 609/16/6
f 609/16/6 608/16/6 610/16/6
f 610/16/6 608/16/6 611/16/6
f 611/16/6 608/16/6 612/16/6
f 612/16/6 608/16/6 613/16/6
f 613/16/6 608/16/6 614/16/6
f 614/16/6 608/16/6 615/16/6
f 616/16/6 617/16/6 620/16/6
f 620/16/6 617/16/6 621/16/6
f 618/16/6 619/16/6 622/16/6
f 622/16/6 619/16/6 623/16/6
f 624/7/6 625/7/6 628/7/6
f 628/7/6 625/7/6 629/7/6
f 626/7/6 627/7/6 630/7/6
f 630/7/6 627/7/6 631/7/6
f 632/7/6 633/7/6 635/7/6
f 635/7/6 633/7/6 636/7/6
f 634/7/6 635/7/6 639/7/6
f 639/7/6 635/7/6 640/7/6
f 636/7/6 637/7/6 641/7/6
f 641/7/6 637/7/6 642/7/6
f 638/7/6 639/7/6 644/7/6
f 644/7/6 639/7/6 645/7/6
f 642/7/6 643/7/6 646/7/6
f 646/7/6 643/7/6 647/7/6
f 648/7/6 649/7/6 650/7/6
f 650/7/6 649/7/6 651/7/6
f 652/7/6 653/7/6 655/7/6
f 655/7/6 653/7/6 656/7/6
f 654/7/6 655/7/6 659/7/6
f 659/7/6 655/7/6 660/7/6
f 656/7/6 657/7/6 661/7/6
f 661/7/6 657/7/6 662/7/6
f 658/16/6 659/16/6 664/16/6
f 664/16/6 659/16/6 665/16/6
f 662/16/6 663/16/6 668/16/6
f 668/16/6 663/16/6 669/16/6
f 665/7/6 666/7/6 670/7/6
f 670/7/6 666/7/6 671/7/6
f 667/7/6 668/7/6 672/7/6
f 672/7/6 668/7/6 673/7/6
f 671/7/6 672/7/6 674/7/6
f 674/7/6 672/7/6 675/7/6
f 676/7/6 677/7/6 679/7/6
f 679/7/6 677/7/6 680/7/6
f 678/16/6 679/16/6 682/16/6
f 682/16/6 679/16/6 683/16/6
f 680/16/6 681/16/6 684/16/6
f 684/16/6 681/16/6 685/16/6
f 683/7/6 684/7/6 686/7/6
f 686/7/6 684/7/6 687/7/6
f 688/16/6 689/16/6 690/16/6
f 690/16/6 689/16/6 691/16/6
